<svg width="177" height="40" viewBox="0 0 177 40" fill="none" xmlns="http://www.w3.org/2000/svg">
<path d="M172.484 39.6947C170.452 39.6947 168.805 38.0468 168.805 36.0135V3.98687C168.805 1.95391 170.452 0.305939 172.484 0.305939C174.517 0.305939 176.166 1.95391 176.166 3.98687V36.0135C176.166 38.0468 174.517 39.6947 172.484 39.6947Z" fill="#E92A2A"/>
<path d="M152.835 7.66824H135.823C133.79 7.66824 132.142 6.01885 132.142 3.98695C132.142 1.95306 133.79 0.305786 135.823 0.305786H160.269C159.164 0.30743 158.073 0.806333 157.352 1.75223L152.835 7.66824Z" fill="#E92A2A"/>
<path d="M135.819 39.6951C135.041 39.6951 134.257 39.4485 133.589 38.9385C131.973 37.7052 131.663 35.3954 132.897 33.7791L157.35 1.75243C158.585 0.136521 160.895 -0.17271 162.511 1.06057C164.127 2.29385 164.436 4.60374 163.203 6.21989L138.75 38.2465C138.024 39.1962 136.929 39.6951 135.819 39.6951Z" fill="#0267C1"/>
<path d="M160.276 39.695H135.866C136.96 39.6801 138.034 39.1833 138.75 38.2464L143.265 32.3325H160.276C162.31 32.3325 163.958 33.9798 163.958 36.0137C163.958 38.0457 162.31 39.695 160.276 39.695ZM134.434 39.4224C134.43 39.4224 134.428 39.4207 134.427 39.4207C134.428 39.4207 134.43 39.4224 134.434 39.4224ZM134.415 39.415C134.413 39.4133 134.409 39.4113 134.404 39.4113C134.409 39.4113 134.413 39.4133 134.415 39.415ZM134.397 39.4076C134.394 39.4059 134.388 39.4039 134.386 39.4022C134.388 39.4039 134.394 39.4059 134.397 39.4076ZM134.382 39.4005C134.054 39.2624 133.752 39.0765 133.482 38.8538C133.518 38.8832 133.553 38.9108 133.589 38.9384C133.839 39.1297 134.106 39.2826 134.382 39.4005ZM132.506 37.6115C132.504 37.6094 132.504 37.6078 132.503 37.6058C132.504 37.6078 132.504 37.6094 132.506 37.6115ZM132.501 37.5982C132.308 37.1972 132.188 36.7555 132.154 36.2897C132.186 36.7427 132.304 37.186 132.501 37.5982ZM132.544 34.3406C132.544 34.3386 132.545 34.3368 132.545 34.3351C132.545 34.3368 132.544 34.3386 132.544 34.3406ZM132.551 34.324L132.556 34.313L132.551 34.324ZM132.559 34.3075C132.565 34.3018 132.566 34.2964 132.57 34.2907C132.566 34.2964 132.565 34.3018 132.559 34.3075ZM132.57 34.2907C132.67 34.1031 132.785 33.9246 132.914 33.7588L132.897 33.779C132.773 33.9431 132.663 34.1141 132.57 34.2907Z" fill="#198C8C"/>
<path d="M160.276 7.66824H152.835L157.352 1.75223C158.074 0.806333 159.165 0.30743 160.269 0.305786H160.276C160.524 0.305786 160.762 0.329626 160.995 0.375546H160.999C161.005 0.377543 161.009 0.377544 161.015 0.379305C161.016 0.379305 161.019 0.379305 161.023 0.381185C161.025 0.381185 161.029 0.381185 161.032 0.383064C161.553 0.491817 162.06 0.716136 162.511 1.06036C162.584 1.11732 162.654 1.17452 162.722 1.23512C163.061 1.53695 163.345 1.89974 163.553 2.30633L163.559 2.31749H163.56C163.791 2.77564 163.925 3.27653 163.953 3.78248V3.78448C163.953 3.78824 163.954 3.79364 163.954 3.79904C163.957 3.86164 163.958 3.92436 163.958 3.98695C163.958 4.5299 163.839 5.04712 163.628 5.51267C163.625 5.51643 163.624 5.51831 163.622 5.52207V5.52571C163.51 5.76658 163.369 6.00042 163.203 6.21968L163.19 6.23624C162.517 7.10662 161.462 7.66824 160.276 7.66824Z" fill="#7B003B"/>
<path d="M135.866 39.695H135.823C135.333 39.695 134.863 39.5973 134.434 39.4224C134.43 39.4224 134.428 39.4207 134.427 39.4207L134.415 39.415C134.412 39.4133 134.409 39.4113 134.404 39.4113C134.403 39.4096 134.401 39.4096 134.397 39.4076C134.394 39.4059 134.388 39.4039 134.384 39.4022C134.384 39.4022 134.382 39.4022 134.382 39.4005C134.106 39.2826 133.839 39.1297 133.589 38.9384C133.552 38.9108 133.517 38.8832 133.482 38.8538C133.074 38.517 132.739 38.0935 132.506 37.6115C132.504 37.6094 132.504 37.6078 132.503 37.6058C132.503 37.604 132.5 37.602 132.5 37.5982C132.303 37.186 132.186 36.7427 132.154 36.2897C132.146 36.1997 132.142 36.1056 132.142 36.0137C132.142 35.41 132.288 34.8411 132.544 34.3406C132.544 34.3386 132.545 34.3368 132.545 34.3351L132.551 34.324L132.556 34.313C132.558 34.3112 132.559 34.3092 132.559 34.3075C132.564 34.3018 132.566 34.2964 132.57 34.2907C132.662 34.1141 132.772 33.9431 132.897 33.779L132.914 33.7588C133.587 32.89 134.639 32.3325 135.823 32.3325H143.265L138.75 38.2464C138.034 39.1833 136.96 39.6801 135.866 39.695Z" fill="#003444"/>
<path d="M119.868 32.5984H99.0605L102.8 25.236H116.129L119.868 32.5984Z" fill="#E92A2A"/>
<path d="M93.1943 39.6958C92.6334 39.6958 92.0644 39.5671 91.5301 39.2959C89.7175 38.3753 88.9941 36.1595 89.9149 34.3468L106.182 2.32006C107.102 0.507548 109.318 -0.21579 111.132 0.704972C112.944 1.62597 113.667 3.84179 112.746 5.65418L96.4788 37.6807C95.8301 38.9595 94.536 39.6958 93.1943 39.6958Z" fill="#0267C1"/>
<path d="M125.735 39.6958C124.392 39.6958 123.099 38.9594 122.449 37.6807L119.868 32.5984H122.126C124.159 32.5984 125.807 30.9502 125.807 28.9173C125.807 26.8843 124.159 25.2361 122.126 25.2361H116.129L109.465 12.1157L112.746 5.65416C113.293 4.57943 113.261 3.36306 112.766 2.35892L129.014 34.3468C129.934 36.1594 129.211 38.3753 127.399 39.2959C126.864 39.5671 126.295 39.6958 125.735 39.6958Z" fill="#198C8C"/>
<path d="M99.0606 32.5984H96.8078C94.7746 32.5984 93.1266 30.9502 93.1266 28.9172C93.1266 26.8843 94.7746 25.236 96.8078 25.236H102.8L99.0606 32.5984Z" fill="#7B003B"/>
<path d="M122.125 32.5984H119.868L116.128 25.236H122.125C124.158 25.236 125.807 26.8843 125.807 28.9172C125.807 30.9502 124.158 32.5984 122.125 32.5984Z" fill="#003444"/>
<path d="M109.465 12.1158L106.182 5.65427C105.637 4.58153 105.668 3.36716 106.16 2.3636L106.182 2.32015C106.375 1.94127 106.624 1.60949 106.914 1.3308C106.915 1.32951 106.916 1.32821 106.917 1.32716C106.923 1.32234 106.928 1.31753 106.934 1.31271C106.936 1.30966 106.94 1.30661 106.942 1.30391C106.946 1.3012 106.949 1.2985 106.952 1.29545C107.198 1.06549 107.481 0.865368 107.797 0.705057C107.855 0.675931 107.912 0.64845 107.971 0.622495C107.972 0.621438 107.973 0.621084 107.974 0.620496C107.979 0.618735 107.983 0.616975 107.987 0.615096C108.423 0.424719 108.893 0.318901 109.372 0.306452C109.372 0.306452 109.373 0.306451 109.374 0.306098C109.38 0.306098 109.386 0.306099 109.391 0.305747C109.414 0.305512 109.438 0.305511 109.461 0.305511C110 0.305511 110.531 0.424014 111.016 0.649389C111.055 0.66724 111.094 0.685679 111.131 0.705057C111.447 0.865368 111.73 1.06549 111.977 1.29545L111.985 1.30355L111.995 1.31271C112 1.31753 112.005 1.32176 112.01 1.32645L112.015 1.3308C112.022 1.33785 112.029 1.34466 112.036 1.35206L112.037 1.35241C112.318 1.62664 112.558 1.95102 112.746 2.32015L112.766 2.35902C113.259 3.36305 113.292 4.57954 112.746 5.65427L109.465 12.1158Z" fill="#003444"/>
<path d="M53.2775 39.6961C53.0512 39.6961 52.8263 39.6744 52.6074 39.6335C52.83 39.676 53.0531 39.6961 53.2757 39.6961C53.6124 39.6961 53.9475 39.6484 54.2695 39.5581C53.94 39.652 53.6052 39.6961 53.2775 39.6961ZM52.6058 39.6335C52.5984 39.6318 52.5909 39.6318 52.5835 39.6298C52.5909 39.6318 52.5984 39.6318 52.6058 39.6335ZM52.5835 39.6298C52.5687 39.6264 52.5542 39.6243 52.5394 39.6207C52.5542 39.6243 52.5687 39.6264 52.5835 39.6298ZM52.5357 39.6207C52.1621 39.5436 51.805 39.4092 51.4737 39.2232C51.5803 39.2838 51.6929 39.3391 51.8087 39.389C52.0462 39.492 52.2908 39.5691 52.5357 39.6207ZM54.2695 39.5581C54.2732 39.5581 54.2753 39.5563 54.2768 39.5563C54.2753 39.5563 54.2732 39.5581 54.2695 39.5581ZM54.6764 39.4183C54.68 39.4166 54.6838 39.4146 54.6875 39.4146C54.6838 39.4146 54.68 39.4166 54.6764 39.4183ZM54.6892 39.4128C55.1015 39.2418 55.4825 38.9968 55.8119 38.6838C55.4937 38.9858 55.1163 39.2359 54.6892 39.4128ZM51.4629 39.2159H51.4606H51.4629ZM50.651 38.5936L50.6456 38.5882L50.651 38.5936ZM50.6398 38.5825C50.3362 38.2716 50.084 37.9033 49.9018 37.4837C50.0787 37.8888 50.3268 38.2624 50.6398 38.5825ZM56.5777 37.6457C56.6036 37.5925 56.6276 37.5372 56.6514 37.482L56.6622 37.4581C56.6365 37.5208 56.6074 37.5834 56.5777 37.6457ZM49.8024 37.2296L38.2727 5.23434C37.5824 3.322 38.5748 1.2127 40.4871 0.52366C40.8995 0.375211 41.321 0.304626 41.735 0.304626C43.2424 0.304626 44.6578 1.23854 45.1991 2.73854L53.5978 26.048L49.9018 34.5443C49.5154 35.4298 49.506 36.3849 49.8024 37.2296Z" fill="#E92A2A"/>
<path d="M78.757 39.6961H78.7498H78.757ZM78.7643 39.6961H78.7736H78.7643ZM78.7387 39.6961H78.7258H78.7387ZM78.788 39.6961H78.7918H78.788ZM78.72 39.6961H78.7056H78.72ZM78.7036 39.6961C78.5489 39.6924 78.3926 39.6814 78.2359 39.6594C78.3906 39.6814 78.5473 39.6924 78.7036 39.6961ZM79.1179 39.678H79.1212H79.1179ZM79.1344 39.676H79.1418H79.1344ZM79.1509 39.6743H79.1636H79.1509ZM79.1674 39.6722C79.4474 39.641 79.729 39.5766 80.0049 39.4772C80.0712 39.4533 80.1375 39.4274 80.1998 39.3998C79.8724 39.5399 79.5245 39.6318 79.1674 39.6722ZM78.2307 39.6574C78.2269 39.6574 78.2253 39.6574 78.2215 39.6558C78.2253 39.6574 78.2269 39.6574 78.2307 39.6574ZM78.2105 39.6558C78.2083 39.654 78.2068 39.654 78.2031 39.654C78.2068 39.654 78.2083 39.654 78.2105 39.6558ZM78.1881 39.652C78.1881 39.652 78.1865 39.652 78.1845 39.6503C78.1865 39.652 78.1881 39.652 78.1881 39.652ZM77.4352 39.4496C77.4352 39.4496 77.4336 39.4496 77.4319 39.4479C77.4336 39.4496 77.4352 39.4496 77.4352 39.4496ZM77.4171 39.4422C76.9422 39.2562 76.5261 38.982 76.1818 38.6452C76.5372 38.9932 76.9586 39.2636 77.4171 39.4422ZM80.2111 39.3964C80.2111 39.3942 80.213 39.3942 80.2148 39.3942C80.213 39.3942 80.2111 39.3942 80.2111 39.3964ZM81.2916 38.6856C82.3184 37.7104 82.7309 36.1824 82.221 34.7653L78.838 25.38L87.406 2.68697C87.9638 1.21269 89.3645 0.305084 90.8517 0.305084C91.2842 0.305084 91.7223 0.381187 92.1511 0.542908C94.0526 1.26143 95.0133 3.3847 94.2935 5.28789L82.2008 37.3145C81.9984 37.8518 81.6817 38.314 81.2916 38.6856ZM75.3039 37.2886C75.3023 37.2849 75.3023 37.2832 75.3003 37.2813C75.3023 37.2832 75.3023 37.2849 75.3039 37.2886ZM75.2987 37.2758C75.2967 37.2684 75.2948 37.2631 75.2913 37.2556L75.2929 37.261C75.2948 37.2667 75.2967 37.2705 75.2987 37.2758Z" fill="#E92A2A"/>
<path d="M78.757 39.6961H78.7642H78.757ZM78.7497 39.6961H78.7386H78.7497ZM78.7736 39.6961H78.788H78.7736ZM78.7258 39.6961H78.72H78.7258ZM78.7918 39.6961H78.8087H78.7918ZM78.8087 39.6961C78.9117 39.6946 79.0149 39.6887 79.1178 39.6781C79.0149 39.6887 78.9117 39.6946 78.8087 39.6961ZM78.7056 39.6961H78.7036H78.7056ZM79.1212 39.6781C79.125 39.6781 79.1307 39.6761 79.1342 39.6761C79.1307 39.6761 79.125 39.6781 79.1212 39.6781ZM79.1418 39.6761C79.1434 39.6761 79.1472 39.6744 79.1509 39.6744C79.1472 39.6744 79.1455 39.6761 79.1418 39.6761ZM79.1636 39.6744C79.1656 39.6723 79.1656 39.6723 79.1674 39.6723C79.1656 39.6723 79.1656 39.6723 79.1636 39.6744ZM78.2359 39.6595C78.2343 39.6575 78.2323 39.6575 78.2306 39.6575C78.2323 39.6575 78.2343 39.6575 78.2359 39.6595ZM78.2215 39.6559H78.2104H78.2215ZM78.203 39.6541C78.1993 39.6541 78.1939 39.6521 78.1881 39.6521C78.1939 39.6521 78.1993 39.6541 78.203 39.6541ZM78.1845 39.6503C77.9287 39.6097 77.6763 39.5437 77.4352 39.4496C77.4427 39.4534 77.45 39.4551 77.4559 39.457C77.6966 39.549 77.9415 39.6117 78.1845 39.6503ZM77.4318 39.448C77.4281 39.446 77.4225 39.4443 77.4171 39.4422C77.4225 39.4443 77.4281 39.446 77.4318 39.448ZM80.1998 39.3998C80.2036 39.3981 80.2073 39.3964 80.211 39.3964C80.2073 39.3964 80.2036 39.3981 80.1998 39.3998ZM80.2147 39.3943C80.6105 39.2233 80.9749 38.9842 81.2916 38.6857C80.9841 38.9767 80.6232 39.2179 80.2147 39.3943ZM76.1817 38.6453C75.8028 38.2754 75.4989 37.8168 75.3039 37.2887C75.4915 37.7967 75.7899 38.2605 76.1817 38.6453ZM75.3003 37.2814C75.3003 37.2796 75.3003 37.2776 75.2986 37.2759C75.3003 37.2776 75.3003 37.2796 75.3003 37.2814ZM75.2911 37.2557L66.8925 13.9517L70.5882 5.45543C70.9749 4.56814 70.9841 3.61121 70.686 2.76456L78.8379 25.3801L75.313 34.7137C74.9911 35.566 75.0057 36.4623 75.2911 37.2557ZM70.6031 2.55269L70.5977 2.53613L70.6031 2.55269ZM70.5977 2.53613C70.4373 2.16501 70.2184 1.81972 69.9441 1.51612C70.211 1.81091 70.4319 2.15314 70.5977 2.53613ZM69.9384 1.51143C69.9384 1.50978 69.9367 1.50814 69.9351 1.50638C69.9367 1.50814 69.9367 1.50978 69.9384 1.51143ZM64.6505 1.34372C65.0131 0.990211 65.4568 0.707053 65.9649 0.523723C66.3549 0.383378 66.7545 0.31291 67.1481 0.305511C66.2168 0.323011 65.3204 0.694252 64.6505 1.34372ZM67.15 0.305511C67.1537 0.305511 67.1557 0.305511 67.1593 0.305511C67.1557 0.305511 67.1537 0.305511 67.15 0.305511Z" fill="#0267C1"/>
<path d="M52.6075 39.6336H52.6059H52.6075ZM52.5394 39.6208H52.5358H52.5394ZM54.2769 39.5564C54.2823 39.5544 54.286 39.5528 54.2918 39.5528C54.286 39.5528 54.2823 39.5544 54.2769 39.5564ZM54.2918 39.5528C54.3708 39.5288 54.4481 39.505 54.5256 39.4773C54.5751 39.4588 54.6266 39.4385 54.6764 39.4184C54.5511 39.4699 54.4225 39.514 54.2918 39.5528ZM54.6876 39.4147C54.6876 39.4129 54.6892 39.4129 54.6892 39.4129C54.6892 39.4129 54.6876 39.4129 54.6876 39.4147ZM51.4737 39.2233C51.47 39.2214 51.4666 39.2196 51.4629 39.2158C51.4666 39.2196 51.47 39.2214 51.4737 39.2233ZM51.4607 39.2158C51.1573 39.0448 50.8865 38.835 50.651 38.5937C50.8921 38.8404 51.1664 39.0485 51.4607 39.2158ZM55.812 38.6839C56.1287 38.3839 56.3863 38.0305 56.5777 37.6458C56.379 38.0453 56.1196 38.3933 55.812 38.6839ZM50.6456 38.5883L50.64 38.5826L50.6456 38.5883ZM49.9018 37.4838C49.8651 37.4012 49.8317 37.3164 49.8025 37.2297L49.8135 37.2611C49.8411 37.3366 49.8705 37.412 49.9018 37.4838ZM56.6623 37.4582C57.0159 36.6318 57.0692 35.6765 56.7397 34.7653L53.5978 26.0481L63.8371 2.5176C64.0359 2.06321 64.3136 1.66872 64.6506 1.34375C63.644 2.32018 63.2446 3.83016 63.7505 5.23444L66.8926 13.9517L56.6623 37.4582Z" fill="#198C8C"/>
<path d="M78.7572 39.6962H78.7037C78.5474 39.6925 78.3908 39.6815 78.2361 39.6595C78.2343 39.6575 78.2324 39.6575 78.2308 39.6575C78.227 39.6575 78.2254 39.6575 78.2216 39.6559H78.2106C78.2085 39.6541 78.2068 39.6541 78.2031 39.6541C78.1994 39.6541 78.194 39.6521 78.1883 39.6521C78.1883 39.6521 78.1865 39.6521 78.1846 39.6503C77.9416 39.6117 77.6968 39.549 77.456 39.457C77.4501 39.4552 77.4427 39.4534 77.4353 39.4496C77.4353 39.4496 77.4337 39.4496 77.4319 39.448C77.4283 39.446 77.4227 39.4444 77.4173 39.4422C76.9586 39.2637 76.5374 38.9932 76.1819 38.6453C75.7901 38.2605 75.4916 37.7967 75.3041 37.2887C75.3023 37.285 75.3023 37.2833 75.3004 37.2814C75.3004 37.2796 75.3004 37.2776 75.2988 37.2759C75.2967 37.2706 75.2949 37.2668 75.2931 37.2611L75.2913 37.2557C75.0059 36.4623 74.9912 35.566 75.3131 34.7137L78.838 25.3801L82.2211 34.7654C82.7309 36.1825 82.3186 37.7105 81.2917 38.6857C80.9751 38.9842 80.6107 39.2233 80.2149 39.3943C80.2131 39.3943 80.2111 39.3943 80.2111 39.3964C80.2074 39.3964 80.2037 39.3981 80.2 39.3998C80.1376 39.4274 80.0713 39.4534 80.005 39.4772C79.7292 39.5767 79.4474 39.6411 79.1675 39.6723C79.1658 39.6723 79.1658 39.6723 79.1638 39.6744H79.1511C79.1473 39.6744 79.1436 39.6761 79.1419 39.6761H79.1344C79.1309 39.6761 79.1251 39.6781 79.1214 39.6781H79.118C79.015 39.6888 78.9119 39.6946 78.8089 39.6962H78.7572Z" fill="#7B003B"/>
<path d="M53.2756 39.6961C53.0529 39.6961 52.83 39.676 52.6073 39.6335H52.6058C52.5983 39.6319 52.5909 39.6319 52.5833 39.6299C52.5685 39.6265 52.5541 39.6243 52.5393 39.6207H52.5355C52.2907 39.5691 52.046 39.492 51.8086 39.389C51.6928 39.3391 51.5802 39.2839 51.4735 39.2233C51.4697 39.2213 51.4664 39.2195 51.4627 39.2159H51.4606C51.1661 39.0484 50.8919 38.8403 50.6508 38.5936L50.6398 38.5825C50.3268 38.2625 50.0785 37.8889 49.9016 37.4837C49.8703 37.4119 49.8409 37.3365 49.8133 37.261L49.8023 37.2297C49.5058 36.3849 49.5153 35.4298 49.9016 34.5443L53.5976 26.048L56.7396 34.7653C57.069 35.6765 57.0158 36.6317 56.6622 37.4581L56.6514 37.482C56.6274 37.5372 56.6035 37.5926 56.5775 37.6458C56.3862 38.0304 56.1285 38.3838 55.8118 38.6838C55.4823 38.9968 55.1015 39.2418 54.6891 39.4128C54.6891 39.4128 54.6874 39.4128 54.6874 39.4146C54.6837 39.4146 54.68 39.4166 54.6762 39.4183C54.6265 39.4384 54.575 39.4587 54.5254 39.4772C54.4479 39.5049 54.3707 39.5287 54.2916 39.5527C54.2858 39.5527 54.2822 39.5543 54.2767 39.5563C54.2751 39.5563 54.2731 39.5581 54.2694 39.5581C53.9473 39.6484 53.6124 39.6961 53.2756 39.6961Z" fill="#003040"/>
<path d="M66.8925 13.9517L63.7504 5.23448C63.2445 3.83009 63.6439 2.32023 64.6505 1.34368C65.3204 0.694213 66.217 0.322971 67.1483 0.305472H67.1501C67.1538 0.305472 67.1557 0.305472 67.1595 0.305472C67.1776 0.305237 67.1944 0.305237 67.2127 0.305237C68.2489 0.305237 69.2392 0.744714 69.9351 1.50634C69.9368 1.5081 69.9384 1.50974 69.9384 1.51139C69.9406 1.51315 69.9422 1.51479 69.9443 1.51609C70.2184 1.8198 70.4373 2.16497 70.5978 2.53609L70.6032 2.55265C70.6047 2.55641 70.6069 2.56017 70.6085 2.56545C70.6325 2.62276 70.6546 2.67972 70.6768 2.73856L70.6861 2.76452C70.9842 3.61117 70.9751 4.56822 70.5883 5.4554L66.8925 13.9517Z" fill="#003444"/>
<path d="M7.36245 24.3585C7.36245 22.3248 5.71319 20.6773 3.68129 20.6773C1.64727 20.6773 0 22.3248 0 24.3585V3.68093C0 1.64833 1.64727 0 3.68129 0C5.71319 0 7.36245 1.64833 7.36245 3.68093V24.3585Z" fill="#E92A2A"/>
<path d="M34.2281 24.3585C34.2281 22.3248 32.5788 20.6773 30.5469 20.6773C28.5129 20.6773 26.8656 22.3248 26.8656 24.3585V3.68093C26.8656 1.64833 28.5129 0 30.5469 0C32.5788 0 34.2281 1.64833 34.2281 3.68093V24.3585Z" fill="#0267C1"/>
<path d="M17.0882 40C7.82424 40 0 32.8364 0 24.3583C0 26.3905 1.64727 28.0395 3.68129 28.0395C5.71319 28.0395 7.36245 26.3905 7.36245 24.3583C7.36245 28.7685 11.907 32.6373 17.0882 32.6373C19.5968 32.6373 22.126 31.6894 24.0273 30.0368C25.8567 28.4465 26.8657 26.429 26.8657 24.3583C26.8657 26.3905 28.5128 28.0395 30.5469 28.0395C32.5788 28.0395 34.228 26.3905 34.228 24.3583C34.228 32.8364 26.3795 40 17.0882 40Z" fill="#198C8C"/>
<path d="M3.68129 28.0398C1.64727 28.0398 0 26.3907 0 24.3586C0 22.3249 1.64727 20.6774 3.68129 20.6774C5.71319 20.6774 7.36245 22.3249 7.36245 24.3586C7.36245 26.3907 5.71319 28.0398 3.68129 28.0398Z" fill="#003444"/>
<path d="M30.5469 28.0398C28.5129 28.0398 26.8656 26.3907 26.8656 24.3586C26.8656 22.3249 28.5129 20.6774 30.5469 20.6774C32.5788 20.6774 34.2281 22.3249 34.2281 24.3586C34.2281 26.3907 32.5788 28.0398 30.5469 28.0398Z" fill="#003444"/>
</svg>
